# xmcd
#
# Track frame offsets:
# 150
# 34900
# 60247
# 76107
# 110817
# 129357
# 147035
# 165312
# 178885
# 207442
# 230237
# 266155
#
# Disc length: 4009 seconds
#
# Revision: 0
# Processed by: cddbd v1.5.1PL0 Copyright (c) Steve Scherf et al.
# Submitted via: Audion 3.0.2 (http://www.panic.com/audion/)
#
DISCID=a70fa70c
DTITLE=mo-tu - mo-tu
DYEAR=1900
DGENRE=
TTITLE0=1
TTITLE1=1
TTITLE2=1
TTITLE3=1
TTITLE4=1
TTITLE5=1
TTITLE6=1
TTITLE7=1
TTITLE8=1
TTITLE9=1
TTITLE10=1
TTITLE11=1
EXTD=
EXTT0=
EXTT1=
EXTT2=
EXTT3=
EXTT4=
EXTT5=
EXTT6=
EXTT7=
EXTT8=
EXTT9=
EXTT10=
EXTT11=
PLAYORDER=
